<svg xmlns="http://www.w3.org/2000/svg" width="21" height="22" viewBox="0 0 21 22"><g><g><path d="M3.334 21.154a3.042 3.042 0 0 1-3.04-3.038V3.452A3.041 3.041 0 0 1 3.335.414h14.664a3.04 3.04 0 0 1 3.037 3.038v14.664a3.04 3.04 0 0 1-3.037 3.038H12.53v-7.372h3.13l.406-2.431H12.53V8.92c0-.67.545-1.216 1.215-1.216h2.43v-2.43h-3.038a3.042 3.042 0 0 0-3.038 3.038v3.038H7.668v2.43h2.43v7.373zM1.51 18.116c0 1.005.817 1.823 1.823 1.823h5.549v-4.942h-2.43v-4.861h2.43V8.313a4.26 4.26 0 0 1 4.254-4.254h4.253V8.92h-3.645v1.215H17.5l-.81 4.86h-2.945v4.943h4.253a1.827 1.827 0 0 0 1.824-1.823V3.452c0-1.006-.82-1.822-1.824-1.822H3.334A1.823 1.823 0 0 0 1.51 3.452z"/></g></g></svg>