<svg xmlns="http://www.w3.org/2000/svg" width="29" height="22" viewBox="0 0 29 22"><g><g><path d="M18.5 9.526a1.14 1.14 0 0 1-.008 2.006l-6.214 3.341a1.127 1.127 0 0 1-1.126-.026 1.13 1.13 0 0 1-.555-.979v-6.74c0-.408.21-.775.56-.983.35-.207.771-.215 1.128-.02zm-1.612.998l-4.643-2.542v5.038z"/></g><g><path d="M28.025 5.161c.008.093.206 2.337.206 4.587v2.104c0 2.252-.198 4.494-.206 4.59l-.004.027c-.027.222-.296 2.192-1.229 3.205-1.12 1.231-2.381 1.366-2.987 1.43-.058.006-.111.011-.158.018l-.049.004c-3.719.271-9.333.307-9.389.307h-.017c-.286-.003-7.016-.103-9.164-.309l-.064-.008a4.32 4.32 0 0 0-.279-.036c-.724-.083-2.07-.238-3.133-1.402-.974-1.023-1.211-3-1.235-3.223l-.001-.014a57.816 57.816 0 0 1-.208-4.589V9.748c0-2.25.199-4.494.208-4.587l.003-.03c.027-.22.297-2.19 1.229-3.204C2.683.68 3.952.533 4.562.462l.131-.016.049-.005c3.752-.27 9.367-.307 9.424-.308h.009c.056.001 5.671.038 9.389.308l.049.005c.042.006.089.01.139.016.618.071 1.899.218 3.031 1.422.979 1.024 1.217 3.037 1.241 3.264zm-1.441 4.587c0-2.117-.187-4.292-.201-4.433-.07-.642-.346-1.829-.791-2.293l-.007-.007c-.718-.767-1.501-.856-2.019-.915-.052-.005-.101-.012-.145-.018-3.616-.26-9.056-.299-9.251-.3-.195.001-5.637.04-9.286.3L4.75 2.1c-.503.058-1.264.147-1.985.94-.436.474-.725 1.644-.809 2.284-.017.201-.199 2.344-.199 4.425v2.104c0 2.114.186 4.285.2 4.434.069.628.345 1.795.792 2.26l.016.016c.648.714 1.491.81 2.107.88.121.014.236.028.344.045 2.08.193 8.712.295 8.992.3.249-.002 5.651-.042 9.248-.302.052-.007.111-.014.174-.02.526-.055 1.246-.133 1.946-.903.453-.494.738-1.74.807-2.283.018-.197.201-2.343.201-4.427z"/></g></g></svg>