<svg xmlns="http://www.w3.org/2000/svg" width="97" height="98" viewBox="0 0 97 98"><g><g><path fill="#fcc200" d="M48.664 97.33L.33 48.992 48.664.657 97 48.993z"/></g><g><path fill="#1d1d1b" d="M48.263 11.722L85.132 48.59l-36.87 36.87-36.87-36.87zm0-3.41L7.982 48.59l40.28 40.28 40.28-40.28z"/></g><g><path fill="#1d1d1b" d="M55.68 50.236l13.761 1.39-.273 1.314c-2.043 9.732-10.747 16.795-20.693 16.795-11.658 0-21.143-9.485-21.143-21.144 0-11.659 9.485-21.144 21.143-21.144 9.946 0 18.65 7.063 20.693 16.796l.273 1.312-13.762 1.39-.323-.877c-1.06-2.88-3.825-4.816-6.88-4.816-4.048 0-7.34 3.292-7.34 7.34 0 4.046 3.292 7.338 7.34 7.338 3.055 0 5.82-1.937 6.881-4.817zm1.57 2.584c-1.614 3.337-5.03 5.521-8.775 5.521-5.376 0-9.75-4.374-9.75-9.75s4.374-9.75 9.75-9.75c3.744 0 7.161 2.183 8.775 5.522l9.233-.931c-2.279-7.94-9.646-13.574-18.008-13.574-10.329 0-18.732 8.404-18.732 18.733 0 10.328 8.403 18.731 18.732 18.731 8.362 0 15.73-5.632 18.008-13.57z"/></g></g></svg>