<svg xmlns="http://www.w3.org/2000/svg" width="85" height="86" viewBox="0 0 85 86"><g><g><path fill="#fff" d="M42.84 81.06l1.399 1.4 1.558-1.556.406.406-1.556 1.557 1.429 1.429 1.732-1.731.428.43-2.26 2.26-4.093-4.095 2.259-2.26.429.43z"/></g><g><path fill="#fff" d="M48.2 75.498c.57-.079 1.131.032 1.681.334l-.558.558a1.942 1.942 0 0 0-1.153-.143c-.393.072-.758.276-1.096.612a1.893 1.893 0 0 0-.52.912c-.083.342-.064.695.056 1.058.12.364.343.709.668 1.035.321.321.664.54 1.025.658a1.9 1.9 0 0 0 1.055.056c.34-.082.644-.256.911-.522.337-.338.542-.703.614-1.096a1.929 1.929 0 0 0-.143-1.152l.56-.558c.3.549.411 1.11.332 1.681-.079.571-.37 1.106-.868 1.607-.384.383-.81.634-1.28.752a2.572 2.572 0 0 1-1.428-.05c-.48-.15-.92-.428-1.325-.83-.406-.407-.685-.851-.839-1.334a2.552 2.552 0 0 1-.05-1.429c.117-.47.368-.897.751-1.281.5-.499 1.035-.789 1.606-.868z"/></g><g><path fill="#fff" d="M53.835 71.13c.492.145.94.419 1.344.822.402.403.677.85.82 1.345.147.493.156.982.03 1.463a2.808 2.808 0 0 1-.758 1.293 2.852 2.852 0 0 1-1.298.764c-.486.13-.976.122-1.47-.023a3.159 3.159 0 0 1-1.345-.822 3.145 3.145 0 0 1-.821-1.345 2.67 2.67 0 0 1-.023-1.47c.13-.485.384-.917.763-1.298.38-.38.81-.632 1.293-.757a2.685 2.685 0 0 1 1.465.028zm-2.793 3.256c.116.369.338.715.663 1.04.32.322.666.54 1.036.658.37.119.732.132 1.083.038.354-.091.67-.28.955-.563.278-.278.46-.595.553-.95a1.93 1.93 0 0 0-.037-1.083c-.116-.367-.336-.712-.657-1.033a2.583 2.583 0 0 0-1.04-.664 1.915 1.915 0 0 0-1.08-.034 2.08 2.08 0 0 0-.947.558c-.283.283-.47.599-.563.953-.094.353-.081.713.034 1.08z"/></g><g><path fill="#fff" d="M57.984 68.542l.446.447-2.322 2.324-.448-.448z"/></g><g><path fill="#fff" d="M59.6 63.441l.429.431-1.788 1.788 1.417 1.417 1.515-1.515.412.412-1.514 1.516 1.835 1.836-.53.528-4.094-4.096z"/></g><g><path fill="#fff" d="M66.494 64.737l-2.742-.605-.575.576 1.674 1.673-.531.528-4.093-4.096 1.346-1.346c.465-.465.926-.703 1.38-.712.456-.009.867.17 1.235.537.333.333.508.694.526 1.084.017.388-.125.785-.427 1.187l2.806.575zm-3.7-.412l.772-.773c.6-.6.637-1.164.11-1.69-.526-.528-1.09-.49-1.691.11l-.771.773z"/></g><g><path fill="#fff" d="M64.143 58.898l4.094 4.097-.528.528-4.096-4.096z"/></g><g><path fill="#fff" d="M65.948 57.953l1.4 1.4 1.557-1.558.406.407-1.556 1.557 1.43 1.428 1.73-1.73.43.43-2.26 2.26-4.096-4.096 2.26-2.26.43.43z"/></g><g><path fill="#fff" d="M75.208 56.023l-.529.528-5.362-1.108 3.237 3.235-.531.529-4.094-4.094.529-.53 5.367 1.116-3.241-3.241.528-.53z"/></g><g><path fill="#fff" d="M78.27 52.457c-.156.492-.46.964-.914 1.417l-1.3 1.3-4.095-4.094 1.3-1.301c.454-.453.924-.76 1.413-.917a2.373 2.373 0 0 1 1.443-.027c.474.142.921.422 1.338.839.415.415.693.859.835 1.334.14.475.134.957-.02 1.449zm-1.354-2.242c-.5-.5-1.029-.748-1.587-.743-.557.003-1.106.274-1.644.81l-.732.734 3.155 3.154.733-.731c.534-.534.805-1.08.812-1.638.007-.558-.238-1.086-.737-1.586z"/></g><g><path fill="#fff" d="M80.337 50.07l1.452-1.453.413.413-1.98 1.98-4.097-4.096.529-.529z"/></g><g><path fill="#fff" d="M81.557 41.484l1.202 3.886 1.552 1.55-.535.535-1.551-1.55-3.893-1.198.617-.616 2.986.976-.982-2.979z"/></g><g><path fill="#73b964" d="M39.933 79.04L.413 39.52 39.933 0l39.52 39.52z"/></g><g><path fill="#fff" d="M52.509 45.327l-1.415-.643-8.99 4.352-.29-4.562 6.957-6.812-1.18-.282-5.895 5.211-.567-8.915-.906-.26-.576 9.156-5.876-5.192-1.178.282 6.934 6.793-.287 4.564-8.955-4.335-1.416.643 10.206 6.318L38.008 68.6l2.68 2.706 2.658-2.706-1.075-16.934z"/></g><g><path fill="#fff" d="M39.081 31.278s2.137-2.5.271-5.08c-1.867-2.579-4.872-3.764-4.872-3.764s-.932 3.946.614 6.225c1.545 2.28 3.822 2.838 3.987 2.62z"/></g><g><path fill="#fff" d="M33.43 42.201s-.13-2.893-2.881-3.428c-2.75-.536-5.391.51-5.391.51s1.772 3.098 4.135 3.632c2.364.536 4.162-.474 4.137-.714z"/></g><g><path fill="#fff" d="M35.233 54.15s.288-3.277-2.729-4.293c-3.015-1.019-6.15-.238-6.15-.238s1.53 3.754 4.112 4.713c2.582.96 4.76.09 4.767-.182z"/></g><g><path fill="#fff" d="M38.273 35.417s.39-2.604-1.972-3.562c-2.359-.958-4.9-.485-4.9-.485s1.042 3.072 3.056 3.962c2.015.89 3.796.303 3.816.085z"/></g><g><path fill="#fff" d="M30.277 35.628s.493-2.587-1.826-3.64c-2.319-1.05-4.876-.682-4.876-.682s.916 3.11 2.893 4.083c1.978.97 3.782.456 3.81.239z"/></g><g><path fill="#fff" d="M45.89 54.048s2.05 2.574 4.938 1.23c2.885-1.341 4.62-4.068 4.62-4.068s-3.7-1.664-6.23-.58c-2.53 1.086-3.51 3.215-3.327 3.418z"/></g><g><path fill="#fff" d="M52.849 46.122s1.669 2.244 4.158 1.186c2.49-1.058 4.04-3.325 4.04-3.325s-3.093-1.519-5.273-.67c-2.181.85-3.075 2.631-2.925 2.81z"/></g><g><path fill="#fff" d="M28.331 46.122s-1.669 2.244-4.16 1.186c-2.49-1.058-4.039-3.325-4.039-3.325s3.094-1.519 5.274-.67c2.182.85 3.074 2.631 2.925 2.81z"/></g><g><path fill="#fff" d="M41.6 32.15s2.38 1.763 4.58-.073c2.199-1.836 3.076-4.608 3.076-4.608s-3.6-.59-5.551.938-2.31 3.607-2.104 3.742z"/></g><g><path fill="#fff" d="M47.8 34.901s2.644 1.96 5.088-.08c2.443-2.039 3.418-5.119 3.418-5.119s-4-.658-6.168 1.04c-2.167 1.7-2.567 4.01-2.338 4.16z"/></g><g><path fill="#fff" d="M48.043 41.9s1.769 1.95 4.005.728c2.234-1.219 3.479-3.484 3.479-3.484s-3.038-1.14-5.003-.143c-1.964.996-2.637 2.746-2.481 2.898z"/></g><g><path fill="#005321" d="M39.603 9.046L69.75 39.192 39.605 69.336 9.457 39.192zm0-2.788L6.67 39.192l32.934 32.932 32.933-32.932z"/></g><g><path fill="#005321" d="M51.523 44.342l-1.416-.644-8.99 4.353-.287-4.562 6.956-6.812-1.18-.282-5.896 5.212-.566-8.917-.907-.261-.576 9.158-5.874-5.192-1.18.282 6.936 6.79-.29 4.567-8.955-4.336-1.414.644 10.205 6.318-1.068 16.954 2.683 2.707 2.656-2.707-1.074-16.933z"/></g><g><path fill="#005321" d="M38.097 30.292s2.136-2.501.27-5.079c-1.867-2.579-4.871-3.765-4.871-3.765s-.933 3.947.613 6.227c1.545 2.278 3.822 2.836 3.988 2.617z"/></g><g><path fill="#005321" d="M32.443 41.216s-.13-2.893-2.88-3.43c-2.749-.534-5.392.512-5.392.512s1.772 3.097 4.136 3.632c2.363.536 4.16-.476 4.136-.714z"/></g><g><path fill="#005321" d="M34.248 53.165s.287-3.277-2.729-4.295c-3.016-1.017-6.151-.236-6.151-.236s1.531 3.754 4.112 4.713c2.582.958 4.76.089 4.768-.182z"/></g><g><path fill="#005321" d="M37.287 34.432s.39-2.604-1.97-3.562c-2.36-.958-4.9-.485-4.9-.485s1.04 3.07 3.056 3.96c2.015.892 3.795.304 3.814.087z"/></g><g><path fill="#005321" d="M29.292 34.642s.493-2.585-1.827-3.638c-2.319-1.051-4.876-.683-4.876-.683s.917 3.11 2.893 4.082c1.979.97 3.782.456 3.81.239z"/></g><g><path fill="#005321" d="M44.904 53.063s2.051 2.572 4.937 1.23c2.886-1.344 4.62-4.069 4.62-4.069s-3.699-1.664-6.229-.58c-2.53 1.086-3.51 3.216-3.328 3.419z"/></g><g><path fill="#005321" d="M51.862 45.136s1.67 2.245 4.16 1.187c2.49-1.06 4.04-3.325 4.04-3.325s-3.094-1.52-5.275-.67c-2.18.85-3.074 2.63-2.925 2.808z"/></g><g><path fill="#005321" d="M27.346 45.136s-1.67 2.245-4.16 1.187c-2.49-1.06-4.04-3.325-4.04-3.325s3.094-1.52 5.275-.67c2.18.85 3.073 2.63 2.925 2.808z"/></g><g><path fill="#005321" d="M40.615 31.163s2.38 1.764 4.58-.072c2.197-1.835 3.074-4.608 3.074-4.608s-3.6-.59-5.55.937c-1.95 1.53-2.309 3.61-2.104 3.743z"/></g><g><path fill="#005321" d="M46.815 33.916s2.645 1.959 5.088-.081c2.443-2.038 3.418-5.118 3.418-5.118s-4.001-.658-6.168 1.04c-2.167 1.7-2.567 4.009-2.338 4.159z"/></g><g><path fill="#005321" d="M47.058 40.913s1.769 1.95 4.004.73c2.234-1.219 3.48-3.484 3.48-3.484s-3.038-1.14-5.003-.144c-1.965.996-2.638 2.746-2.481 2.898z"/></g></g></svg>