<svg xmlns="http://www.w3.org/2000/svg" width="19" height="19" viewBox="0 0 19 19"><g><g><path fill="#fff" d="M2.724 18.833a2.74 2.74 0 0 1-2.738-2.737V2.887A2.74 2.74 0 0 1 2.724.15h13.21a2.74 2.74 0 0 1 2.735 2.737v13.21a2.74 2.74 0 0 1-2.736 2.736h-4.926v-6.64h2.821l.364-2.19h-3.185v-2.19c0-.603.491-1.094 1.095-1.094h2.19V4.53h-2.738a2.74 2.74 0 0 0-2.737 2.737v2.737H6.628v2.19h2.19v6.64zm-1.643-2.737c0 .906.736 1.643 1.643 1.643h5v-4.452h-2.19V8.908h2.19V7.266a3.836 3.836 0 0 1 3.83-3.832h3.832v4.38h-3.284v1.094h3.382l-.729 4.38h-2.653v4.451h3.831c.905 0 1.643-.737 1.643-1.643V2.887c0-.906-.738-1.642-1.643-1.642H2.724c-.907 0-1.643.736-1.643 1.642z"/></g></g></svg>