<svg xmlns="http://www.w3.org/2000/svg" width="81" height="69" viewBox="0 0 81 69"><g><g><g><text dominant-baseline="text-before-edge" transform="translate(-1 26)"><tspan fill="#fff" font-family="'Poppins','Poppins-BoldItalic'" font-size="14.66" font-style="italic" font-weight="700" letter-spacing=".26">VRAAG EEN</tspan></text></g></g><g><g><text dominant-baseline="text-before-edge" transform="translate(9 40)"><tspan fill="#fff" font-family="'Poppins','Poppins-BoldItalic'" font-size="14.66" font-style="italic" font-weight="700" letter-spacing=".26">OFFERTE</tspan></text></g></g><g><g><text dominant-baseline="text-before-edge" transform="translate(24 53)"><tspan fill="#fff" font-family="'Poppins','Poppins-BoldItalic'" font-size="14.66" font-style="italic" font-weight="700" letter-spacing=".26">AAN</tspan></text></g></g><g><path fill="#fff" d="M52.84.533a2.897 2.897 0 0 1 2.895 2.893v17.356a2.897 2.897 0 0 1-2.894 2.893H27.773a2.897 2.897 0 0 1-2.894-2.893V3.426A2.897 2.897 0 0 1 27.773.533zm-25.067 1.93a.952.952 0 0 0-.37.074l12.904 11.184L53.21 2.537a.944.944 0 0 0-.37-.075zM52.84 21.745a.966.966 0 0 0 .965-.964V4.574L40.939 15.726a.963.963 0 0 1-1.264 0L26.808 4.574v16.208c0 .531.432.964.965.964z"/></g></g></svg>