<svg xmlns="http://www.w3.org/2000/svg" width="114" height="95" viewBox="0 0 114 95"><g><g><g><text dominant-baseline="text-before-edge" transform="translate(-1 52)"><tspan fill="#fff" font-family="'Poppins','Poppins-BoldItalic'" font-size="20.41" font-style="italic" font-weight="700">WHATSAPP</tspan></text></g></g><g><g><text dominant-baseline="text-before-edge" transform="translate(34 72)"><tspan fill="#fff" font-family="'Poppins','Poppins-BoldItalic'" font-size="20.41" font-style="italic" font-weight="700" letter-spacing=".41">ONS</tspan></text></g></g><g><path fill="#fff" d="M80.168 41.152a1.97 1.97 0 0 1-2.62 2.54l-10.564-4.658a22.625 22.625 0 0 1-4.092 1.138c-1.432 2.355-3.475 4.349-5.957 5.8-2.773 1.62-5.974 2.487-9.267 2.514a2.288 2.288 0 0 1-.145.005c-2.277 0-4.483-.392-6.57-1.168l-8.293 3.656a1.964 1.964 0 0 1-2.165-.39 1.973 1.973 0 0 1-.455-2.15l2.877-7.116c-1.98-2.695-3.02-5.83-3.02-9.13 0-5.285 2.74-10.191 7.365-13.253.426-4.71 2.625-9.075 6.3-12.44C47.629 2.78 53.022.73 58.749.73c5.728 0 11.12 2.049 15.184 5.77 4.114 3.765 6.38 8.785 6.38 14.135 0 .884-.077 1.892-.22 2.836a1.968 1.968 0 1 1-3.893-.581c.11-.747.175-1.568.175-2.255 0-8.805-7.907-15.966-17.626-15.966-9.718 0-17.626 7.16-17.626 15.966 0 7.71 7.082 15.964 17.626 15.964 2.62 0 5.142-.51 7.496-1.513a1.967 1.967 0 0 1 1.567.009l6.888 3.037-2.318-5.738a1.969 1.969 0 1 1 3.652-1.476zm-32.645 3.397c3.88 0 7.545-1.517 10.106-4.038-5.455-.256-10.508-2.386-14.327-6.062-3.07-2.954-5.104-6.714-5.826-10.646-2.316 2.26-3.641 5.244-3.641 8.39 0 2.75.98 5.353 2.835 7.53.477.558.602 1.335.328 2.015l-1.488 3.68 4.612-2.033a1.972 1.972 0 0 1 1.567-.01 14.729 14.729 0 0 0 5.755 1.177c.025-.001.05-.003.079-.003zm14.08-22.058a1.97 1.97 0 0 1 0 3.939H49.787a1.969 1.969 0 1 1 0-3.94zm-11.816-3.938a1.97 1.97 0 0 1 0-3.938h17.725a1.969 1.969 0 1 1 0 3.938z"/></g></g></svg>