<svg xmlns="http://www.w3.org/2000/svg" width="56" height="65" viewBox="0 0 56 65"><g><g><g><text dominant-baseline="text-before-edge" transform="translate(0 34)"><tspan fill="#fff" font-family="'Poppins','Poppins-BoldItalic'" font-size="14.66" font-style="italic" font-weight="700">B</tspan></text></g></g><g><g><text dominant-baseline="text-before-edge" transform="translate(10 34)"><tspan fill="#fff" font-family="'Poppins','Poppins-BoldItalic'" font-size="14.66" font-style="italic" font-weight="700">E</tspan></text></g></g><g><g><text dominant-baseline="text-before-edge" transform="translate(18 34)"><tspan fill="#fff" font-family="'Poppins','Poppins-BoldItalic'" font-size="14.66" font-style="italic" font-weight="700" letter-spacing=".28">L</tspan></text></g></g><g><g><text dominant-baseline="text-before-edge" transform="translate(29 34)"><tspan fill="#fff" font-family="'Poppins','Poppins-BoldItalic'" font-size="14.66" font-style="italic" font-weight="700" letter-spacing=".29">MI</tspan><tspan fill="#fff" font-family="'Poppins','Poppins-BoldItalic'" font-size="14.66" font-style="italic" font-weight="700">J</tspan></text></g></g><g><g><text dominant-baseline="text-before-edge" transform="translate(3 49)"><tspan fill="#fff" font-family="'Poppins','Poppins-BoldItalic'" font-size="14.66" font-style="italic" font-weight="700" letter-spacing=".29">TERU</tspan><tspan fill="#fff" font-family="'Poppins','Poppins-BoldItalic'" font-size="14.66" font-style="italic" font-weight="700">G</tspan></text></g></g><g><path fill="#fff" d="M47.627 26.516l-4.479-4.48c-1.196-1.196-3.284-1.198-4.481 0l-.747.746 8.96 8.96.747-.747a3.167 3.167 0 0 0 0-4.48z"/></g><g><path fill="#fff" d="M33.236 24.072l-8.855-8.862c-.864-.864-.892-2.21-.163-3.15L15.28 3.122c-3.845 4.483-3.694 11.237.55 15.48l14.014 14.02c4.072 4.074 10.744 4.614 15.481.55l-8.94-8.938c-.942.73-2.288.7-3.149-.162z"/></g><g><path fill="#fff" d="M26.417 9.78a3.165 3.165 0 0 0 0-4.48L21.938.82c-1.194-1.194-3.283-1.197-4.479 0l-.747.748 8.958 8.959z"/></g></g></svg>