<svg xmlns="http://www.w3.org/2000/svg" width="33" height="32" viewBox="0 0 33 32"><g><g><path fill="#fcc200" d="M22.315-.033c5.449 0 9.869 4.42 9.869 9.869V21.68c0 5.45-4.42 9.869-9.87 9.869H10.47c-5.45 0-9.87-4.418-9.87-9.87V9.837c0-5.45 4.42-9.87 9.87-9.87zm6.909 9.869c0-3.81-3.1-6.91-6.91-6.91H10.47c-3.808 0-6.908 3.1-6.908 6.91V21.68c0 3.81 3.1 6.909 6.908 6.909h11.845a6.917 6.917 0 0 0 6.909-6.91z"/></g><g><path fill="#fcc200" d="M16.393 7.862a7.896 7.896 0 1 1 0 15.793 7.896 7.896 0 0 1 0-15.793zm0 12.831a4.942 4.942 0 0 0 4.935-4.936 4.94 4.94 0 0 0-4.935-4.934 4.94 4.94 0 0 0-4.935 4.934 4.941 4.941 0 0 0 4.935 4.936z"/></g><g><path fill="#fcc200" d="M24.88 6.219a1.052 1.052 0 1 1 .001 2.104 1.052 1.052 0 0 1-.001-2.104z"/></g></g></svg>