<svg xmlns="http://www.w3.org/2000/svg" width="38" height="28" viewBox="0 0 38 28"><g><g><path fill="#fcc200" d="M24.739 12.12a1.485 1.485 0 0 1-.01 2.613l-8.09 4.35a1.48 1.48 0 0 1-1.466-.033 1.474 1.474 0 0 1-.724-1.276V8.997c0-.53.273-1.008.729-1.278a1.476 1.476 0 0 1 1.47-.027zm-2.098 1.298l-6.046-3.308v6.56z"/></g><g><path fill="#fcc200" d="M37.142 6.436c.01.123.269 3.042.269 5.974v2.74a76.11 76.11 0 0 1-.27 5.974l-.004.037c-.036.288-.387 2.853-1.601 4.173-1.456 1.602-3.1 1.778-3.89 1.861-.074.008-.144.015-.204.023l-.064.007c-4.842.352-12.152.401-12.225.401h-.023c-.371-.006-9.135-.138-11.93-.403l-.084-.012a6.754 6.754 0 0 0-.366-.046c-.942-.109-2.693-.309-4.08-1.825-1.266-1.335-1.575-3.908-1.605-4.198l-.003-.018a75.82 75.82 0 0 1-.27-5.974v-2.74c0-2.932.259-5.85.27-5.974l.005-.037c.036-.288.386-2.853 1.6-4.173C4.145.6 5.796.41 6.59.318c.064-.007.12-.014.172-.022l.066-.005c4.883-.352 12.194-.4 12.267-.4h.014c.073 0 7.384.048 12.224.4l.065.005c.054.008.115.016.18.023.804.092 2.475.281 3.949 1.851 1.273 1.333 1.582 3.955 1.613 4.25zm-1.877 5.974c0-2.757-.244-5.59-.26-5.774-.092-.836-.451-2.38-1.032-2.986l-.01-.008c-.933-.998-1.953-1.114-2.627-1.19l-.188-.024c-4.708-.34-11.791-.39-12.046-.392-.254.003-7.34.052-12.09.392a3.298 3.298 0 0 1-.176.021c-.655.077-1.645.19-2.586 1.224-.567.618-.944 2.142-1.053 2.974-.022.263-.258 3.054-.258 5.763v2.74c0 2.751.243 5.578.26 5.771.09.821.45 2.338 1.032 2.944l.019.02c.844.93 1.943 1.056 2.744 1.147.159.018.309.036.448.057 2.71.252 11.345.385 11.708.391.325-.003 7.359-.056 12.042-.393l.228-.026c.684-.072 1.62-.172 2.533-1.176.592-.642.96-2.264 1.052-2.972.023-.257.26-3.05.26-5.763z"/></g></g></svg>