<svg xmlns="http://www.w3.org/2000/svg" width="28" height="28" viewBox="0 0 28 28"><g><g><path fill="#fcc200" d="M4.35 27.26a3.96 3.96 0 0 1-3.956-3.954V4.21A3.96 3.96 0 0 1 4.35.255h19.094A3.96 3.96 0 0 1 27.4 4.21v19.095a3.96 3.96 0 0 1-3.955 3.955h-7.12v-9.6H20.4l.527-3.164h-4.603v-3.165c0-.873.709-1.582 1.582-1.582h3.164V6.585h-3.956a3.96 3.96 0 0 0-3.956 3.955v3.957H9.995v3.164h3.164v9.6zm-2.374-3.954A2.378 2.378 0 0 0 4.35 25.68h7.226v-6.436H8.413v-6.33h3.164V10.54A5.545 5.545 0 0 1 17.115 5h5.539v6.332h-4.747v1.582h4.888l-1.053 6.33h-3.835v6.436h5.538a2.378 2.378 0 0 0 2.373-2.374V4.21a2.377 2.377 0 0 0-2.373-2.374H4.35A2.377 2.377 0 0 0 1.976 4.21z"/></g></g></svg>