<svg xmlns="http://www.w3.org/2000/svg" width="23" height="23" viewBox="0 0 23 23"><g><g><path fill="#fff" d="M15.636.567a6.83 6.83 0 0 1 6.829 6.828v8.194a6.83 6.83 0 0 1-6.829 6.828H7.442a6.83 6.83 0 0 1-6.829-6.828V7.395A6.83 6.83 0 0 1 7.442.567zm4.78 6.828a4.785 4.785 0 0 0-4.78-4.78H7.442a4.786 4.786 0 0 0-4.78 4.78v8.194a4.785 4.785 0 0 0 4.78 4.779h8.194a4.785 4.785 0 0 0 4.78-4.78z"/></g><g><path fill="#fff" d="M11.54 6.03a5.463 5.463 0 1 1-.001 10.925A5.463 5.463 0 0 1 11.54 6.03zm0 8.876a3.418 3.418 0 0 0 3.413-3.414 3.418 3.418 0 0 0-3.413-3.414 3.42 3.42 0 0 0-3.416 3.414 3.42 3.42 0 0 0 3.416 3.414z"/></g></g></svg>