<svg xmlns="http://www.w3.org/2000/svg" width="44" height="40" viewBox="0 0 44 40"><g><g><path fill="#e30613" d="M43.352 39.998H-.326v-40h43.678z"/></g><g><path fill="#fff" d="M33.843 26.183l-3.23-3.232c-.864-.863-2.37-.865-3.234 0l-.539.538 6.464 6.464.54-.54a2.282 2.282 0 0 0 0-3.23z"/></g><g><path fill="#fff" d="M23.461 24.42l-6.389-6.394c-.623-.622-.643-1.593-.116-2.272l-6.45-6.448c-2.774 3.234-2.665 8.107.396 11.169l10.112 10.114c2.938 2.938 7.75 3.329 11.168.397l-6.449-6.45c-.68.528-1.65.507-2.272-.116z"/></g><g><path fill="#fff" d="M18.542 14.11a2.282 2.282 0 0 0 0-3.232L15.31 7.646c-.861-.863-2.368-.865-3.231 0l-.539.54 6.463 6.462z"/></g></g></svg>