<svg xmlns="http://www.w3.org/2000/svg" width="44" height="40" viewBox="0 0 44 40"><g><g><path fill="#9d9d9c" d="M43.852 39.998H.174v-40h43.678z"/></g><g><path fill="#fff" d="M33.929 8.998a2.754 2.754 0 0 1 2.75 2.75v16.5a2.753 2.753 0 0 1-2.75 2.75H10.097a2.753 2.753 0 0 1-2.75-2.75v-16.5a2.754 2.754 0 0 1 2.75-2.75zm-23.832 1.834a.918.918 0 0 0-.352.07l12.268 10.633L34.28 10.903a.914.914 0 0 0-.352-.071zm23.832 18.333a.918.918 0 0 0 .917-.917V12.84L22.614 23.442a.916.916 0 0 1-1.202 0L9.18 12.84v15.408c0 .506.412.917.917.917z"/></g></g></svg>