<svg xmlns="http://www.w3.org/2000/svg" width="44" height="40" viewBox="0 0 44 40"><g><g><path fill="#00af00" d="M43.776 39.998H.098v-40h43.678z"/></g><g><path fill="#fff" d="M35.858 28.448a1.094 1.094 0 0 1-1.455 1.41l-5.867-2.586a12.65 12.65 0 0 1-2.273.632 9.42 9.42 0 0 1-3.31 3.222 10.362 10.362 0 0 1-5.145 1.395 10.415 10.415 0 0 1-3.729-.646l-4.606 2.03a1.094 1.094 0 0 1-1.456-1.411l1.598-3.951a8.49 8.49 0 0 1-1.678-5.071c0-2.935 1.523-5.66 4.09-7.36.238-2.616 1.459-5.041 3.5-6.91C17.787 7.137 20.78 6 23.962 6c3.182 0 6.177 1.137 8.433 3.204 2.286 2.09 3.544 4.879 3.544 7.85 0 .49-.043 1.05-.122 1.575a1.093 1.093 0 1 1-2.162-.322c.06-.415.097-.872.097-1.253 0-4.89-4.392-8.867-9.79-8.867-5.397 0-9.79 3.977-9.79 8.867 0 4.282 3.934 8.866 9.79 8.866a10.55 10.55 0 0 0 4.164-.84c.278-.12.593-.117.87.006l3.825 1.686-1.287-3.187a1.094 1.094 0 0 1 2.028-.82zm-18.131 1.887c2.155 0 4.19-.842 5.613-2.243-3.03-.142-5.836-1.325-7.957-3.366-1.705-1.641-2.835-3.73-3.236-5.913-1.286 1.255-2.022 2.912-2.022 4.659 0 1.528.544 2.974 1.575 4.182.264.31.334.742.182 1.12l-.827 2.044 2.562-1.13c.276-.122.592-.124.869-.005a8.166 8.166 0 0 0 3.197.653l.044-.001zm7.82-12.25a1.093 1.093 0 1 1 0 2.187h-6.562a1.094 1.094 0 1 1 0-2.187zm-6.562-2.188a1.094 1.094 0 1 1 0-2.188h9.844a1.093 1.093 0 0 1 0 2.188z"/></g></g></svg>