<svg xmlns="http://www.w3.org/2000/svg" width="25" height="25" viewBox="0 0 25 25"><g><g><path fill="#eab000" d="M24.304 18.406L21.197 15.3c-.83-.83-2.277-.83-3.108 0l-.518.517 6.215 6.215.518-.519a2.195 2.195 0 0 0 0-3.106z"/></g><g><path fill="#eab000" d="M14.322 16.71l-6.143-6.146c-.6-.6-.62-1.533-.112-2.185l-6.201-6.2c-2.668 3.109-2.563 7.794.38 10.738l9.723 9.726c2.825 2.825 7.452 3.2 10.739.38l-6.201-6.2c-.654.507-1.588.487-2.185-.112z"/></g><g><path fill="#eab000" d="M9.591 6.797c.86-.86.857-2.251 0-3.107L6.484.582c-.829-.83-2.277-.831-3.108 0l-.518.519 6.215 6.214z"/></g></g></svg>