<svg xmlns="http://www.w3.org/2000/svg" width="18" height="22" viewBox="0 0 18 22"><g><g><path fill="#fff" d="M13.86 10.744a5.248 5.248 0 0 0 1.73-3.896 5.27 5.27 0 1 0-10.542 0c0 1.546.67 2.932 1.731 3.896-2.207 1.246-3.707 3.613-3.707 6.315v4.94h14.494v-4.94c0-2.702-1.5-5.07-3.707-6.315z"/></g><g><path fill="#fcc200" d="M11.503 9.173a5.25 5.25 0 0 0 1.73-3.896 5.27 5.27 0 1 0-10.541 0 5.25 5.25 0 0 0 1.73 3.896C2.216 10.419.717 12.786.717 15.488v4.94H15.21v-4.94c0-2.702-1.5-5.07-3.707-6.315z"/></g></g></svg>