<svg xmlns="http://www.w3.org/2000/svg" width="161" height="160" viewBox="0 0 161 160"><g><g><path fill="#fff" d="M80.376 160L.478 80.104 80.377.208l79.895 79.896z"/></g><g><path fill="#e9af00" d="M148.284 81.433l-66.58 66.58-66.58-66.58 66.58-66.58zm-66.58 60.943l60.943-60.943L81.704 20.49 20.762 81.433z"/></g><g><path fill="#1d1d1b" d="M79.711 18.497l60.942 60.942-60.942 60.943L18.768 79.44zm0-5.637l-66.58 66.58 66.58 66.58 66.58-66.58z"/></g><g><path d="M71.64 100.837c-5.95-7.664-17.803-23.881-17.803-33.602C53.837 53.32 65.157 42 79.071 42c4.18 0 8.321 1.044 11.976 3.018a1.486 1.486 0 0 1-1.41 2.612 22.294 22.294 0 0 0-10.566-2.661c-12.277 0-22.266 9.988-22.266 22.266 0 11.172 18.94 33.893 19.038 34.142a207.77 207.77 0 0 0 3.228 3.943c.832-.99 2.074-2.49 3.545-4.341 11.897-14.97 18.721-27.268 18.721-33.744 0-3.827-.986-7.6-2.85-10.911a1.485 1.485 0 0 1 2.585-1.456 25.237 25.237 0 0 1 3.233 12.367c0 9.707-11.817 25.892-17.803 33.602 4.812.878 11.866 3.349 11.866 8.257 0 5.078-8.296 8.906-19.297 8.906-11 0-19.297-3.828-19.297-8.906 0-4.901 7.036-7.376 11.866-8.257zm7.431 8.257c-.429 0-.837-.186-1.119-.51a176.87 176.87 0 0 1-4.204-5.076c-6.909.939-11.005 3.527-11.005 5.586 0 3.676 9.604 5.937 16.328 5.937 4.943 0 16.328-1.712 16.328-5.937 0-2.055-4.099-4.65-11.003-5.587a176.959 176.959 0 0 1-4.206 5.078c-.282.323-.69.509-1.119.509z"/></g></g></svg>