<svg xmlns="http://www.w3.org/2000/svg" width="161" height="160" viewBox="0 0 161 160"><g><g><path fill="#fff" d="M80.376 159.792L.48 79.896 80.376 0l79.896 79.896z"/></g><g><path fill="#e9af00" d="M148.284 81.225l-66.58 66.58-66.58-66.58 66.58-66.58zm-66.58 60.942l60.944-60.942-60.944-60.943-60.942 60.943z"/></g><g><path fill="#1d1d1b" d="M79.71 18.29l60.944 60.941-60.943 60.942-60.942-60.942zm0-5.639l-66.578 66.58 66.579 66.58 66.58-66.58z"/></g><g><path d="M102.892 48.738a4.048 4.048 0 0 1 4.043 4.043v54.176a4.048 4.048 0 0 1-4.043 4.043h-45.82a4.048 4.048 0 0 1-4.043-4.043V52.781a4.048 4.048 0 0 1 4.043-4.043h5.755a2.694 2.694 0 0 1 2.331-1.347h8.221C74.005 44.319 76.73 42 79.982 42c3.254 0 5.977 2.319 6.603 5.391h8.221c.995 0 1.864.543 2.33 1.347zm-28.975 6.739a1.346 1.346 0 1 1 0 2.695h-8.759a2.693 2.693 0 0 1-2.33-1.348h-1.713v46.09H98.85v-46.09h-1.713a2.69 2.69 0 0 1-2.33 1.348h-8.76a1.349 1.349 0 0 1 0-2.695h8.76v-5.391h-9.433a1.349 1.349 0 0 1-1.348-1.348 4.048 4.048 0 0 0-4.043-4.043 4.048 4.048 0 0 0-4.043 4.043c0 .744-.603 1.348-1.347 1.348h-9.434v5.391zm30.323-2.696c0-.743-.604-1.347-1.348-1.347h-5.39v2.695h2.695c.743 0 1.348.603 1.348 1.348v48.785c0 .744-.605 1.347-1.348 1.347h-40.43a1.347 1.347 0 0 1-1.347-1.347V55.477c0-.745.603-1.348 1.347-1.348h2.696v-2.695h-5.39c-.745 0-1.349.604-1.349 1.347v54.176a1.35 1.35 0 0 0 1.348 1.348h45.82a1.35 1.35 0 0 0 1.348-1.348z"/></g><g><path d="M70.943 60.948l-2.64 2.641-.844-.844a1.347 1.347 0 1 0-1.907 1.905l1.797 1.797c.264.264.61.395.953.395.345 0 .69-.13.954-.395l3.593-3.594a1.348 1.348 0 0 0-1.906-1.905z"/></g><g><path d="M77.287 65.045H93.46a1.348 1.348 0 0 0 0-2.695H77.287a1.347 1.347 0 1 0 0 2.695z"/></g><g><path d="M70.943 69.034l-2.64 2.641-.844-.845a1.348 1.348 0 0 0-1.907 1.906l1.797 1.797c.264.264.61.395.953.395.345 0 .69-.13.954-.395l3.593-3.594a1.348 1.348 0 0 0-1.906-1.905z"/></g><g><path d="M77.287 73.13H93.46a1.348 1.348 0 0 0 0-2.695H77.287a1.347 1.347 0 1 0 0 2.696z"/></g><g><path d="M70.943 77.12l-2.64 2.641-.844-.845a1.348 1.348 0 0 0-1.907 1.906l1.797 1.797a1.348 1.348 0 0 0 1.907 0l3.593-3.594a1.347 1.347 0 1 0-1.906-1.906z"/></g><g><path d="M77.287 81.217H93.46a1.348 1.348 0 0 0 0-2.695H77.287a1.347 1.347 0 1 0 0 2.695z"/></g><g><path d="M70.943 85.205l-2.64 2.642-.844-.845a1.348 1.348 0 0 0-1.907 1.906l1.797 1.797a1.348 1.348 0 0 0 1.907 0l3.593-3.594a1.347 1.347 0 1 0-1.906-1.906z"/></g><g><path d="M77.287 89.303H93.46a1.348 1.348 0 0 0 0-2.695H77.287a1.347 1.347 0 1 0 0 2.695z"/></g><g><path d="M70.943 93.291l-2.64 2.642-.844-.845a1.348 1.348 0 0 0-1.907 1.906l1.797 1.797a1.348 1.348 0 0 0 1.907 0l3.593-3.594a1.347 1.347 0 1 0-1.906-1.906z"/></g><g><path d="M77.287 97.389H93.46a1.348 1.348 0 0 0 0-2.695H77.287a1.347 1.347 0 1 0 0 2.695z"/></g></g></svg>