<svg xmlns="http://www.w3.org/2000/svg" width="161" height="160" viewBox="0 0 161 160"><g><g><path fill="#fff" d="M80.376 159.792L.48 79.896 80.376 0l79.896 79.896z"/></g><g><path fill="#e9af00" d="M148.284 81.225l-66.58 66.58-66.58-66.58 66.58-66.58zm-66.58 60.942l60.944-60.942-60.944-60.943-60.942 60.943z"/></g><g><path fill="#1d1d1b" d="M79.71 18.29l60.944 60.941-60.943 60.942-60.942-60.942zm0-5.639l-66.578 66.58 66.579 66.58 66.58-66.58z"/></g><g><path d="M80.942 83.404a4.903 4.903 0 0 1 4.898 4.898v3.605c0 6.638-1.802 13.115-5.212 18.729-.247.409-.69.658-1.168.658H48.835a1.366 1.366 0 0 1-1.17-2.077c3.15-5.187 4.817-11.173 4.817-17.31v-3.605c0-2.7 2.197-4.898 4.899-4.898h7.405V42.662c0-.755.612-1.368 1.368-1.368h6.015c.755 0 1.367.613 1.367 1.368v11.575a1.367 1.367 0 1 1-2.734 0V44.029H67.52v31.946h3.28V66.54a1.367 1.367 0 1 1 2.735 0v16.863zM57.38 86.138a2.167 2.167 0 0 0-2.165 2.164v2.228h27.89v-2.228a2.168 2.168 0 0 0-2.164-2.164zm10.14-2.735h3.28v-4.694h-3.28zm11.16 25.157a33.31 33.31 0 0 0 4.398-15.286H55.19a36.08 36.08 0 0 1-4.02 15.286h7.09a33.342 33.342 0 0 0 3.26-7.867 1.368 1.368 0 0 1 2.639.719 36.372 36.372 0 0 1-2.782 7.148h7.093a33.34 33.34 0 0 0 3.258-7.867 1.367 1.367 0 1 1 2.639.719 36.334 36.334 0 0 1-2.782 7.148z"/></g><g><path d="M94.91 94.308c-1.34 0-2.602.522-3.55 1.47a1.368 1.368 0 0 0 1.934 1.934 2.273 2.273 0 0 1 1.615-.67c.61 0 1.185.239 1.615.67.432.43.67 1.005.67 1.616 0 .61-.238 1.184-.67 1.615a1.368 1.368 0 0 0 1.934 1.933 4.988 4.988 0 0 0 1.471-3.548 4.985 4.985 0 0 0-1.47-3.55 4.98 4.98 0 0 0-3.55-1.47z"/></g><g><path d="M93.66 77.661a2.327 2.327 0 0 1 2.323 2.324 1.367 1.367 0 1 0 2.735 0 5.065 5.065 0 0 0-5.059-5.058 5.064 5.064 0 0 0-5.059 5.058 1.367 1.367 0 0 0 2.735 0 2.326 2.326 0 0 1 2.324-2.324z"/></g><g><path d="M112.038 93.936a8.026 8.026 0 0 0 .982-3.86c0-4.448-3.617-8.066-8.064-8.066a8.03 8.03 0 0 0-5.58 2.242 1.368 1.368 0 0 0 1.891 1.975 5.303 5.303 0 0 1 3.69-1.483 5.336 5.336 0 0 1 5.33 5.331 5.31 5.31 0 0 1-1.46 3.662 1.365 1.365 0 0 0 .744 2.285 6.319 6.319 0 0 1 5.162 6.214 6.33 6.33 0 0 1-6.323 6.324 6.285 6.285 0 0 1-5.4-3.034 1.368 1.368 0 1 0-2.336 1.425 9.003 9.003 0 0 0 7.736 4.343c4.994 0 9.058-4.063 9.058-9.057a9.06 9.06 0 0 0-5.43-8.301z"/></g></g></svg>