<svg xmlns="http://www.w3.org/2000/svg" width="161" height="160" viewBox="0 0 161 160"><g><g><path fill="#fff" d="M80.376 159.792L.48 79.896 80.376 0l79.896 79.896z"/></g><g><path fill="#e9af00" d="M148.284 81.225l-66.58 66.58-66.58-66.58 66.58-66.58zm-66.58 60.942l60.944-60.942-60.944-60.943-60.942 60.943z"/></g><g><path fill="#1d1d1b" d="M79.71 18.29l60.944 60.941-60.943 60.942-60.942-60.942zm0-5.639l-66.578 66.58 66.579 66.58 66.58-66.58z"/></g><g><path fill="#1d1d1b" d="M110 50.727c0 .025-.003.048-.004.073 0 .013.004.027.004.041V77.96a.556.556 0 0 1-1.111 0V52.5c-1.453 1.013-4.114 1.55-6.67 1.55l-.04-.002c.264.338.41.713.41 1.127 0 .024-.003.047-.004.072.002.013.005.027.005.041v52.921c3.909-.075 6.299-1.308 6.299-2.2v-5.295a.555.555 0 1 1 1.11 0v5.294c0 2.085-3.75 3.242-7.41 3.316v1.13c0 2.086-3.751 3.242-7.41 3.316v1.5c0 2.156-4.01 3.321-7.78 3.321-2.928 0-5.997-.703-7.225-2.025-1.227 1.322-4.297 2.025-7.224 2.025-2.928 0-5.998-.703-7.225-2.025-1.228 1.322-4.298 2.025-7.226 2.025-3.771 0-7.78-1.165-7.78-3.32V84.252a.556.556 0 1 1 1.11 0v31.016c0 .922 2.538 2.21 6.67 2.21s6.669-1.288 6.669-2.21V61.761c-1.452 1.015-4.114 1.55-6.67 1.55-2.552 0-5.215-.535-6.668-1.55v14.292a.555.555 0 1 1-1.111 0V59.55h.06c.507-1.874 4.215-2.879 7.72-2.879.133 0 .265.002.398.005-.484-.429-.768-.93-.768-1.5 0-2.159 4.009-3.322 7.78-3.322h.04c-.261-.339-.41-.714-.41-1.126 0-2.157 4.01-3.32 7.782-3.32 2.927 0 5.997.701 7.224 2.023 1.228-1.322 4.297-2.023 7.225-2.023s5.997.701 7.224 2.023c1.229-1.322 4.298-2.023 7.226-2.023 3.772 0 7.78 1.163 7.78 3.32zM72.95 56.67c.13 0 .264.002.397.005a2.962 2.962 0 0 1-.212-.206 3.044 3.044 0 0 1-.207.201zm7.012 1.82c.075.065.147.134.212.204.064-.069.133-.136.207-.2h-.021c-.132 0-.265-.002-.398-.005zm-14.052.003c-.132 0-.264 0-.397-.004.075.066.146.135.212.205.063-.069.133-.136.206-.2zm21.489-1.823c.133 0 .264.002.397.005a3.188 3.188 0 0 1-.212-.206 3.025 3.025 0 0 1-.206.201zm-14.45 60.808c4.132 0 6.669-1.287 6.669-2.209V61.761c-1.453 1.015-4.114 1.55-6.668 1.55-2.555 0-5.217-.535-6.67-1.55v53.508c0 .922 2.538 2.21 6.67 2.21zm14.45 0c4.132 0 6.669-1.287 6.669-2.209V61.761c-1.453 1.015-4.115 1.55-6.67 1.55-2.554 0-5.215-.535-6.668-1.55v53.508c0 .922 2.537 2.21 6.669 2.21zm7.78-4.824c3.91-.075 6.299-1.308 6.299-2.2v-53.51c-1.452 1.015-4.114 1.55-6.67 1.55-.131 0-.264-.002-.396-.005.355.314.6.668.706 1.06h.06z"/></g></g></svg>