<svg xmlns="http://www.w3.org/2000/svg" width="161" height="160" viewBox="0 0 161 160"><g><g><path fill="#fff" d="M80.376 159.792L.478 79.896 80.377 0l79.895 79.896z"/></g><g><path fill="#e9af00" d="M148.284 81.225l-66.58 66.58-66.58-66.58 66.58-66.58zm-66.58 60.942l60.943-60.942-60.943-60.943-60.942 60.943z"/></g><g><path fill="#1d1d1b" d="M79.711 18.29l60.942 60.941-60.942 60.942-60.943-60.942zm0-5.639l-66.58 66.58 66.58 66.58 66.58-66.58z"/></g><g><path d="M117.974 56.133c.435.215.711.659.711 1.146v30.687c.001.459-.245.883-.644 1.11l-7.914 4.522a2.56 2.56 0 0 1-3.397-.804l-1.03-1.543-2.52 2.52a4.484 4.484 0 0 1-.593 3.654 4.4 4.4 0 0 1-3.153 1.917 4.447 4.447 0 0 1-1.492 4.114 4.446 4.446 0 0 1-4.293.848 4.409 4.409 0 0 1-5.684 3.88 4.454 4.454 0 0 1-4.458 4.019 4.435 4.435 0 0 1-2.466-.744l-4.722-3.154-2.005 1.549a3.717 3.717 0 0 1-2.73.852 3.771 3.771 0 0 1-3.339-2.746c-.42.157-.863.238-1.31.239a3.831 3.831 0 0 1-2.924-1.352 3.781 3.781 0 0 1-.88-2.264c-.02 0-.038.005-.058.005a4.45 4.45 0 0 1-3.424-1.583v-.002a4.432 4.432 0 0 1-1.032-2.477 3.504 3.504 0 0 1-.91.037 3.805 3.805 0 0 1-2.684-6.14l-1.484-1.185a2.562 2.562 0 0 1-1.749.695 2.532 2.532 0 0 1-1.264-.335l-7.914-4.521a1.28 1.28 0 0 1-.645-1.111V57.279a1.279 1.279 0 0 1 2.056-1.015l20.785 15.894a2.565 2.565 0 0 1 .802 3.022h13.068c1.23-.943 3.611-1.79 8.202-.912.09.018.177.044.26.08l4.786 2.038 3.28-.894a2.561 2.561 0 0 1 .637-3.334l20.787-15.894a1.278 1.278 0 0 1 1.344-.131zm-73.45 31.09l2.567 1.468 11.71-17.91-14.277-10.914zm7.271 4.154l11.46-17.19-2.419-1.848-11.52 17.622zm6.123 6.637c.331.033.661-.072.911-.291l3.198-2.473a1.252 1.252 0 0 0-.854-2.17 1.243 1.243 0 0 0-.807.296l-3.197 2.473a1.252 1.252 0 0 0 .75 2.165zm4.988 4.01a1.898 1.898 0 0 0 1.397-.447l2.964-2.29 1.095-.856a1.919 1.919 0 0 0-2.554-2.86l-4.027 3.114a1.92 1.92 0 0 0 1.125 3.339zm3.058 3.17a1.25 1.25 0 0 0 1.763.146l1.707-1.332.003-.003.1-.077 2.99-2.334a1.253 1.253 0 1 0-1.657-1.877l-.903.705c-.009.008-.016.019-.026.027l-.88.68-2.99 2.334a1.217 1.217 0 0 0-.399.82c-.029.33.077.659.292.91zm9.94.2a1.253 1.253 0 0 0-1.66-1.873l-3.14 2.428-.06.046a1.254 1.254 0 0 0 .75 2.164c.332.034.662-.072.912-.291zm24.555-9.385c.396-.591.436-1.35.106-1.98-.008-.014-.016-.028-.02-.043a2.092 2.092 0 0 0-.608-.646l-12.466-8.027a1.353 1.353 0 0 1-.23-.104l-3.26-2.074a12.549 12.549 0 0 1-6.95 1 3.64 3.64 0 0 1-3.039-2.976 3.68 3.68 0 0 1 1.193-3.422H63.962l-8.94 13.412 1.99 1.59 1.746-1.35a3.804 3.804 0 0 1 6.041 1.782A4.445 4.445 0 0 1 71.5 96.88c.164-.011.33-.013.493-.004a3.775 3.775 0 0 1 3.477 3.819 3.785 3.785 0 0 1 2.775 5.821l4.212 2.814a1.921 1.921 0 0 0 2.382-3 3.498 3.498 0 0 0-.325-.295l-2.37-1.683a1.28 1.28 0 1 1 1.48-2.085l2.305 1.636h.001l2.261 1.605a1.91 1.91 0 0 0 2.63-.555 2.035 2.035 0 0 0-.553-2.748l-.002-.002-6.138-4.234a1.279 1.279 0 0 1 1.454-2.105l8.403 5.798c.42.277.931.375 1.423.273a1.908 1.908 0 0 0 .684-3.463l-.004-.004-8.126-5.617a1.277 1.277 0 1 1 1.454-2.103l8.397 5.804.01.006c.882.56 2.05.317 2.636-.55zm3.794-6.927L96.69 77.739 92.17 78.97a1.255 1.255 0 0 1-.837-.058l-5.067-2.158c-4.206-.777-5.75.196-6.126.516a1.108 1.108 0 0 0-.135.139.873.873 0 0 1-.213.27 14.705 14.705 0 0 1-2.684 1.796c-.45.235-.693.737-.599 1.236.076.477.46.846.938.902a10.13 10.13 0 0 0 5.98-1.052 1.279 1.279 0 0 1 1.322.03l3.762 2.393c.062.018.122.042.18.07l12.645 8.146c.151.113.295.235.431.367zm7.085.879L99.816 72.339l-2.419 1.85 11.461 17.188zm4.79-30.094l-14.275 10.916 11.71 17.908 2.565-1.467z"/></g></g></svg>