<svg xmlns="http://www.w3.org/2000/svg" width="161" height="160" viewBox="0 0 161 160"><g><g><path fill="#fff" d="M80.376 159.792L.48 79.896 80.376 0l79.896 79.896z"/></g><g><path fill="#e9af00" d="M148.284 81.225l-66.58 66.58-66.58-66.58 66.58-66.58zm-66.58 60.942l60.944-60.942-60.944-60.943-60.942 60.943z"/></g><g><path fill="#1d1d1b" d="M79.71 18.29l60.944 60.941-60.943 60.942-60.942-60.942zm0-5.639l-66.578 66.58 66.579 66.58 66.58-66.58z"/></g><g><path d="M107.49 58.715c3.553 1.431 5.51 3.466 5.51 5.73v30.813c0 2.263-1.957 4.298-5.51 5.73-2.938 1.182-6.697 1.871-10.667 1.961v.012c0 4.391-7.175 7.703-16.689 7.703-9.516 0-16.69-3.312-16.69-7.704v-.01c-3.97-.09-7.729-.78-10.668-1.963-3.553-1.43-5.51-3.465-5.51-5.73V64.445c0-2.263 1.957-4.298 5.51-5.73 3.16-1.272 7.267-1.973 11.566-1.973 4.298 0 8.407.701 11.566 1.973 1.867.752 3.292 1.671 4.226 2.702.932-1.03 2.358-1.95 4.225-2.702 3.16-1.272 7.267-1.973 11.566-1.973 4.298 0 8.406.701 11.565 1.973zm2.942 25.294c-.804.579-1.789 1.109-2.94 1.573-2.94 1.183-6.699 1.872-10.669 1.962v5.133c3.607-.092 7.104-.726 9.708-1.775 2.406-.968 3.901-2.251 3.901-3.347zM78.85 68.603c-.804.58-1.788 1.108-2.94 1.572-3.16 1.272-7.269 1.973-11.567 1.973-4.299 0-8.407-.7-11.566-1.973-1.153-.465-2.137-.993-2.94-1.572v3.546c0 1.095 1.493 2.378 3.9 3.347 2.82 1.137 6.686 1.789 10.606 1.789s7.787-.653 10.606-1.789c2.406-.968 3.901-2.251 3.901-3.347zm-26.073 9.275c-1.153-.464-2.137-.993-2.94-1.572v3.546c0 1.095 1.493 2.378 3.9 3.347 2.813 1.134 6.666 1.785 10.576 1.788 1.011-1.424 2.87-2.637 5.454-3.547 2.577-.907 5.762-1.453 9.083-1.565v-3.568c-.804.579-1.788 1.108-2.94 1.57-3.16 1.274-7.269 1.975-11.567 1.975-4.299 0-8.407-.701-11.566-1.974zm-2.94 9.677c0 1.095 1.493 2.378 3.9 3.347 2.604 1.05 6.1 1.684 9.707 1.775v-5.134c-3.97-.09-7.728-.778-10.667-1.961-1.153-.464-2.137-.994-2.94-1.572zm16.311-.632c-.092.214-.137.42-.137.632 0 1.128 1.392 2.382 3.723 3.353 2.758 1.15 6.451 1.783 10.401 1.783s7.642-.634 10.4-1.783c2.33-.97 3.722-2.224 3.722-3.353 0-.212-.045-.419-.137-.635-.95-2.21-6.442-4.501-13.985-4.501-7.544 0-13.036 2.29-13.987 4.505zm44.285-10.617c-.804.58-1.789 1.109-2.942 1.572-3.159 1.272-7.267 1.973-11.565 1.973-4.299 0-8.407-.7-11.566-1.973-1.153-.464-2.138-.993-2.942-1.572v3.569c3.321.111 6.507.656 9.083 1.564 2.585.91 4.444 2.125 5.455 3.548 3.91-.004 7.763-.655 10.576-1.788 2.406-.969 3.901-2.252 3.901-3.348zm0-7.703c-.804.58-1.789 1.108-2.942 1.572-3.159 1.272-7.267 1.973-11.565 1.973-4.299 0-8.407-.7-11.566-1.973-1.153-.465-2.138-.993-2.942-1.572v3.546c0 1.095 1.495 2.378 3.901 3.347 2.82 1.137 6.687 1.789 10.607 1.789 3.92 0 7.786-.653 10.606-1.789 2.406-.968 3.901-2.251 3.901-3.347zm-25.114-7.505c-2.406.968-3.9 2.251-3.9 3.347 0 1.097 1.494 2.38 3.9 3.349 2.82 1.135 6.687 1.787 10.607 1.787 3.92 0 7.786-.652 10.606-1.788 2.406-.969 3.901-2.252 3.901-3.348 0-1.095-1.495-2.378-3.9-3.347-2.82-1.138-6.688-1.789-10.607-1.789-3.92 0-7.787.652-10.607 1.789zm-31.583 0c-2.406.968-3.9 2.251-3.9 3.347 0 1.097 1.494 2.38 3.9 3.349 2.82 1.135 6.687 1.787 10.607 1.787 3.92 0 7.787-.652 10.606-1.788 2.406-.969 3.901-2.252 3.901-3.348 0-1.095-1.495-2.378-3.9-3.347-2.82-1.138-6.687-1.789-10.607-1.789-3.92 0-7.787.652-10.607 1.789zm0 37.508c2.605 1.049 6.101 1.684 9.708 1.775v-5.133c-3.97-.091-7.728-.78-10.667-1.963-1.153-.464-2.137-.993-2.94-1.572v3.545c0 1.096 1.493 2.379 3.9 3.348zm36.798 7.709c2.331-.972 3.723-2.226 3.723-3.355v-3.47c-.29.212-.613.42-.969.627-1.993 1.152-4.706 2.006-7.845 2.467a1.285 1.285 0 0 1-.373-2.542c5.967-.874 9.187-3.118 9.187-4.784v-3.482c-2.907 2.127-8.036 3.482-14.122 3.482-6.088 0-11.217-1.355-14.124-3.482v3.482c0 1.666 3.22 3.91 9.187 4.785a1.285 1.285 0 1 1-.373 2.542c-3.139-.462-5.85-1.316-7.845-2.469a11.39 11.39 0 0 1-.969-.625v3.47c0 1.128 1.392 2.382 3.723 3.353 2.758 1.15 6.451 1.782 10.401 1.782s7.642-.633 10.4-1.782zm15.998-7.71c2.406-.968 3.901-2.251 3.901-3.347v-3.546c-.804.58-1.789 1.107-2.942 1.572-2.938 1.183-6.697 1.872-10.667 1.962v5.134c3.607-.09 7.104-.726 9.708-1.775z"/></g></g></svg>