<svg xmlns="http://www.w3.org/2000/svg" width="161" height="160" viewBox="0 0 161 160"><g><g><path fill="#fff" d="M80.376 159.792L.478 79.896 80.377 0l79.895 79.896z"/></g><g><path fill="#e9af00" d="M148.284 81.225l-66.58 66.58-66.58-66.58 66.58-66.58zm-66.58 60.942l60.943-60.942-60.943-60.943-60.942 60.943z"/></g><g><path fill="#1d1d1b" d="M79.711 18.29l60.942 60.941-60.942 60.942-60.943-60.942zm0-5.639l-66.58 66.58 66.58 66.58 66.58-66.58z"/></g><g><path d="M112.635 64.278a4.32 4.32 0 0 1-.997 4.538c-3.393 3.397-41.31 41.313-44.71 44.71a4.324 4.324 0 0 1-4.539.999 13.098 13.098 0 0 1-7.772-7.773 4.325 4.325 0 0 1 .997-4.54l44.71-44.708a4.322 4.322 0 0 1 4.38-1.053c3.31 1.074 6.503 3.949 7.931 7.827zm-2.85 1.05c-1.084-2.938-3.478-5.122-6.004-5.981-.492-.167-.806.006-1.004.08-.258.139.32-.4-8.086 8.016-.349.35-.465.876-.294 1.34a10.058 10.058 0 0 0 5.971 5.97c.424.158.901.074 1.246-.21l7.875-7.874c.35-.35.467-.874.295-1.34zm-11.016 12.06a13.083 13.083 0 0 1-7.012-7.02l-33.994 33.994c-.349.35-.465.875-.294 1.34a10.06 10.06 0 0 0 5.971 5.97c.464.172.99.057 1.34-.293z"/></g><g><path d="M75.82 66.582c-1.945-.554-1.941-3.317 0-3.871a5.265 5.265 0 0 0 3.644-3.643c.556-1.947 3.318-1.943 3.872 0a5.265 5.265 0 0 0 3.643 3.642c1.946.556 1.942 3.318 0 3.872a5.267 5.267 0 0 0-3.643 3.644c-.555 1.945-3.317 1.942-3.872 0a5.267 5.267 0 0 0-3.643-3.644zm5.58-4.476a8.24 8.24 0 0 1-2.542 2.54A8.247 8.247 0 0 1 81.4 67.19a8.247 8.247 0 0 1 2.542-2.543 8.251 8.251 0 0 1-2.542-2.542z"/></g><g><path d="M62 56.484c-2.073-.59-2.067-3.528 0-4.118a7.035 7.035 0 0 0 4.863-4.863c.591-2.072 3.53-2.067 4.118 0a7.037 7.037 0 0 0 4.864 4.863c2.071.591 2.066 3.528 0 4.118a7.036 7.036 0 0 0-4.864 4.864c-.59 2.071-3.529 2.067-4.118 0A7.035 7.035 0 0 0 62 56.484zm6.922-6.042a10.001 10.001 0 0 1-3.982 3.983 10.005 10.005 0 0 1 3.982 3.982 10.001 10.001 0 0 1 3.983-3.982 9.997 9.997 0 0 1-3.983-3.983z"/></g><g><path d="M80.444 49.577c-2.235-.636-2.23-3.806 0-4.441a9.346 9.346 0 0 0 6.46-6.462c.638-2.234 3.807-2.23 4.443 0a9.344 9.344 0 0 0 6.46 6.462c2.234.637 2.23 3.806 0 4.44a9.346 9.346 0 0 0-6.46 6.462c-.638 2.234-3.807 2.23-4.443 0a9.348 9.348 0 0 0-6.46-6.461zm8.681-8.19a12.314 12.314 0 0 1-5.968 5.969 12.314 12.314 0 0 1 5.969 5.969 12.319 12.319 0 0 1 5.968-5.97 12.314 12.314 0 0 1-5.968-5.968z"/></g></g></svg>