<svg xmlns="http://www.w3.org/2000/svg" width="161" height="160" viewBox="0 0 161 160"><g><g><path fill="#fff" d="M80.376 159.792L.478 79.896 80.377 0l79.895 79.896z"/></g><g><path fill="#e9af00" d="M148.284 81.225l-66.58 66.58-66.58-66.58 66.58-66.58zm-66.58 60.942l60.943-60.942-60.943-60.943-60.942 60.943z"/></g><g><path fill="#1d1d1b" d="M79.711 18.29l60.942 60.941-60.942 60.942-60.943-60.942zm0-5.639l-66.58 66.58 66.58 66.58 66.58-66.58z"/></g><g><path d="M100.883 74.238a5.118 5.118 0 1 1 1.692 9.948c.547.815.867 1.793.867 2.845a5.12 5.12 0 0 1-3.415 4.828c.544.82.856 1.8.856 2.848a5.118 5.118 0 0 1-3.425 4.831c.547.814.866 1.793.866 2.845a5.122 5.122 0 0 1-5.117 5.117H79.449c-5.983 0-8.444-.642-12.911-1.809-.556-.145-1.16-.302-1.808-.469a3.843 3.843 0 0 1-3.506 2.278H48.43a1.279 1.279 0 0 1-1.28-1.279V75.518c0-.707.574-1.28 1.28-1.28h12.793c1.572 0 2.925.95 3.518 2.306 7.84-1.949 18.23-6.496 18.23-14.587v-1.279a5.123 5.123 0 0 1 5.118-5.118 5.125 5.125 0 0 1 5.114 4.995c.039.276.068.713.09 1.47.116 3.97-.483 8.426-1.961 12.213zm-38.38 3.838c0-.705-.573-1.279-1.28-1.279H49.712v28.144h11.513a1.28 1.28 0 0 0 1.28-1.279zm38.38 3.838a2.56 2.56 0 0 0 0-5.117H84.252a1.279 1.279 0 1 1 0-2.559h4.308c2.782-6.18 2.089-13.005 2.089-13.56v-.004a2.564 2.564 0 0 0-2.56-2.555 2.562 2.562 0 0 0-2.558 2.56v1.278c0 9.558-11.21 14.94-20.47 17.146v23.563c.772.197 1.479.382 2.124.55 4.4 1.15 6.609 1.725 12.264 1.725h13.758a2.561 2.561 0 0 0 2.559-2.558 2.563 2.563 0 0 0-2.56-2.559H89.37a1.279 1.279 0 1 1 0-2.558h6.397a2.559 2.559 0 0 0 2.558-2.559 2.55 2.55 0 0 0-2.558-2.559h-3.838a1.278 1.278 0 1 1 0-2.558h6.396a2.56 2.56 0 0 0 0-5.117h-3.837a1.28 1.28 0 1 1 0-2.559z"/></g></g></svg>