<svg xmlns="http://www.w3.org/2000/svg" width="161" height="160" viewBox="0 0 161 160"><g><g><path fill="#fff" d="M80.376 159.792L.478 79.896 80.377 0l79.895 79.896z"/></g><g><path fill="#e9af00" d="M148.284 81.225l-66.58 66.58-66.58-66.58 66.58-66.58zm-66.58 60.942l60.943-60.942-60.943-60.943-60.942 60.943z"/></g><g><path fill="#1d1d1b" d="M79.711 18.29l60.942 60.941-60.942 60.942-60.943-60.942zm0-5.639l-66.58 66.58 66.58 66.58 66.58-66.58z"/></g><g><path fill="#1d1d1b" d="M103.23 100.39a.955.955 0 0 1-.107-.005l-1.15-.123.151 1.14a.977.977 0 0 1-.972 1.108.979.979 0 0 1-.969-.85l-.139-1.052-1.105.515a.98.98 0 0 1-.829-1.774l1.035-.483-.879-.861a.978.978 0 1 1 1.37-1.398l.87.852.428-.99a.98.98 0 0 1 1.798.778l-.467 1.078 1.068.114a.98.98 0 0 1-.104 1.952zM66.22 89.236a.842.842 0 0 1-.123-.008l-1.95-.242.223 1.945a.978.978 0 1 1-1.945.225l-.214-1.857-1.902.85a.978.978 0 0 1-.799-1.787l1.83-.818-1.492-1.51a.98.98 0 0 1 1.393-1.377l1.484 1.503.791-1.752a.979.979 0 0 1 1.784.805l-.83 1.84 1.87.233a.979.979 0 0 1-.12 1.95zm-4.587-20.298c.541 0 .98.438.98.979v1.119l.916-.353a.98.98 0 0 1 .703 1.828l-1.006.387.607.769a.98.98 0 0 1-1.537 1.213l-.66-.836-.653.833a.975.975 0 0 1-1.374.167.978.978 0 0 1-.167-1.374l.597-.762-1.05-.395a.98.98 0 0 1 .687-1.833l.978.367v-1.13c0-.541.438-.98.98-.98zm18.872-14.482a.98.98 0 0 1 .688-1.833l.978.366v-1.13a.98.98 0 0 1 1.958 0v1.118l.916-.353a.98.98 0 1 1 .703 1.829l-1.007.386.608.77a.98.98 0 1 1-1.537 1.213l-.66-.836-.653.834a.977.977 0 0 1-1.374.167.979.979 0 0 1-.167-1.375l.597-.763zm27.51 9.686a.98.98 0 0 1 .687-1.833l.978.366v-1.13a.978.978 0 0 1 1.958 0v1.119l.917-.353a.979.979 0 1 1 .702 1.828l-1.006.387.608.77a.98.98 0 0 1-1.538 1.213l-.659-.836-.653.833a.977.977 0 0 1-1.375.167.98.98 0 0 1-.167-1.374l.598-.762zm-10.09-11.435a.979.979 0 1 1 .687-1.833l1.597.6v-1.814a.98.98 0 0 1 1.958 0v1.8l1.521-.583a.98.98 0 0 1 .702 1.829l-1.61.618.992 1.258a.98.98 0 1 1-1.537 1.212l-1.045-1.323-1.035 1.32a.976.976 0 0 1-1.374.167.979.979 0 0 1-.167-1.374l.98-1.25zm18.087 28.354c-.254.248-.45.855-.39 1.204l.255 1.492c.12.7-.085 1.3-.562 1.647a1.406 1.406 0 0 1-.837.266c-.29 0-.597-.08-.902-.241l-1.34-.704c-.314-.166-.953-.166-1.267 0l-1.34.704c-.628.33-1.262.32-1.739-.025-.477-.347-.682-.947-.562-1.647l.256-1.492c.06-.35-.138-.956-.39-1.204l-1.086-1.057c-.508-.495-.695-1.101-.512-1.663.182-.56.69-.941 1.391-1.042l1.5-.218c.35-.051.866-.426 1.023-.744l.67-1.357c.314-.637.832-1.002 1.422-1.002s1.11.365 1.423 1l.67 1.359c.157.318.673.693 1.023.744l1.5.218c.701.1 1.208.48 1.391 1.042.183.562-.004 1.168-.512 1.663zm-.823-1.932l-.752-.11c-.983-.143-2.057-.923-2.498-1.815l-.337-.683-.336.683c-.44.892-1.515 1.672-2.499 1.815l-.75.108.542.533c.712.693 1.123 1.956.955 2.936l-.129.748.673-.352c.44-.232.992-.347 1.544-.347s1.104.115 1.545.347l.671.352-.127-.748c-.168-.98.242-2.243.955-2.936zM53.661 54.955c-.53-.517-.726-1.146-.538-1.726.19-.58.717-.973 1.45-1.08l1.641-.237c.416-.061 1.007-.491 1.193-.867l.734-1.488c.328-.664.865-1.045 1.475-1.045.61 0 1.147.38 1.474 1.045l.735 1.488c.185.376.776.806 1.192.867l1.642.238c.733.106 1.261.5 1.45 1.08.188.579-.008 1.208-.539 1.725l-1.188 1.158c-.3.293-.526.987-.455 1.4l.28 1.637c.125.73-.086 1.353-.579 1.712-.493.358-1.15.365-1.806.022l-1.469-.773c-.372-.196-1.102-.196-1.474 0l-1.469.772a2.037 2.037 0 0 1-.945.253c-.315 0-.61-.092-.862-.274-.493-.36-.704-.982-.579-1.712l.281-1.636c.071-.414-.155-1.108-.456-1.401zm1.822-.958l.733.713c.76.742 1.198 2.089 1.02 3.136l-.174 1.008.905-.476c.47-.247 1.06-.371 1.65-.371.588 0 1.177.124 1.647.37l.906.477-.173-1.008c-.179-1.048.26-2.395 1.02-3.136l.731-.713-1.013-.148c-1.05-.152-2.196-.985-2.666-1.937l-.453-.918-.453.918c-.47.952-1.617 1.785-2.667 1.937zm54.036 17.868c-7.556-1.638-12.437 3.215-14.782 6.474 1.943-.468 4.38-.291 6.76 1.664a.978.978 0 1 1-1.242 1.513c-3.809-3.124-7.268-.258-7.413-.135-.025.023-.054.037-.08.056l-.05.035a.987.987 0 0 1-.226.102l-.024.005a1.052 1.052 0 0 1-.223.032c-.01 0-.02.004-.032.004l-.034-.003a1.112 1.112 0 0 1-.318-.068c-.017-.005-.035-.008-.052-.016l-.015-.01c-.034-.016-.065-.036-.097-.056-.024-.014-.049-.028-.07-.045-.026-.018-.047-.04-.07-.061-.026-.024-.052-.046-.075-.072l-.014-.014c-.016-.018-.026-.038-.039-.057-.02-.028-.042-.055-.06-.086a.872.872 0 0 1-.042-.087.786.786 0 0 1-.036-.084c-.01-.031-.018-.062-.026-.093-.007-.031-.014-.061-.019-.091-.004-.031-.005-.062-.006-.093a1.04 1.04 0 0 1-.002-.097.925.925 0 0 1 .012-.092l.016-.094a.842.842 0 0 1 .036-.103c.007-.02.011-.042.02-.062l.017-.035c.324-.684 6.332-12.904 18.6-10.244a.977.977 0 0 1 .75 1.164.976.976 0 0 1-1.164.749zM89.613 83.933c.133-.018 13.33-1.72 18.108 11.789a.979.979 0 1 1-1.846.652c-3.313-9.363-10.93-10.543-14.322-10.583 1.122 1.748 2.888 4.893 3.898 8.73a.979.979 0 1 1-1.894.5c-1.426-5.42-4.549-9.477-4.58-9.518-.013-.016-.02-.035-.033-.051a1.13 1.13 0 0 1-.096-.178 2.231 2.231 0 0 1-.028-.074 1.214 1.214 0 0 1-.029-.12c-.002-.014-.008-.028-.01-.042v-.026a1.298 1.298 0 0 1-.006-.124c.001-.024 0-.05.002-.072.004-.038.011-.075.02-.112.004-.026.008-.05.016-.075.01-.036.024-.07.038-.104.01-.024.02-.048.031-.07a.914.914 0 0 1 .058-.094.59.59 0 0 1 .045-.066c.021-.026.045-.05.07-.075.021-.022.043-.045.067-.065.01-.008.017-.018.027-.026.016-.011.033-.02.05-.03a.937.937 0 0 1 .171-.094c.03-.012.058-.024.09-.034.032-.011.064-.017.097-.024.02-.004.036-.011.056-.014zm-3.062-9.506c-.16-.687-3.344-15.006 7.36-26.127a.98.98 0 0 1 1.41 1.358c-5.435 5.646-6.992 12.312-7.28 17.239 1.226-2.84 3.442-5.784 7.442-7.38a.98.98 0 0 1 .725 1.818c-7.812 3.118-7.732 12.404-7.723 12.849v.006c0 .017-.004.034-.004.05-.002.049-.003.095-.012.14-.005.029-.014.054-.02.08-.01.036-.018.07-.03.105-.012.026-.026.05-.039.076-.015.03-.029.064-.048.093-.013.02-.03.039-.045.058-.023.032-.045.063-.07.09-.016.017-.033.03-.049.044-.03.029-.06.057-.094.08-.02.015-.042.026-.063.037-.033.02-.065.042-.1.059-.034.016-.07.024-.107.036-.025.008-.048.02-.074.026h-.003a1.083 1.083 0 0 1-.2.026h-.022l-.01-.002a.981.981 0 0 1-.279-.047l-.05-.016a.975.975 0 0 1-.242-.131l-.042-.034a.978.978 0 0 1-.189-.207c-.007-.01-.012-.022-.019-.033a.996.996 0 0 1-.118-.276c0-.003-.002-.005-.003-.008a.025.025 0 0 0-.002-.007v-.002zm-15.85-21.133a.979.979 0 1 1 1.167-1.572c12.45 9.24 11.608 24.234 11.566 24.868 0 .01-.004.019-.004.029a1.447 1.447 0 0 1-.036.186.961.961 0 0 1-.032.084c-.012.03-.023.06-.039.089a.947.947 0 0 1-.16.222c-.024.024-.048.048-.074.07l-.032.03c-.007.005-.016.007-.023.013a.971.971 0 0 1-.246.132.442.442 0 0 1-.052.014.924.924 0 0 1-.269.044l-.009.002-.008-.001-.056-.002c-.029-.002-.056-.01-.084-.013-.03-.005-.06-.008-.09-.016a.843.843 0 0 1-.13-.045c-.02-.01-.043-.014-.064-.024a.982.982 0 0 1-.172-.11c-.016-.011-.03-.028-.046-.042a.937.937 0 0 1-.104-.105c-.006-.008-.014-.013-.02-.022-.083-.105-8.303-10.587-15.93-10.587a.98.98 0 0 1 0-1.958c6.34 0 12.646 5.929 15.66 9.22-.353-4.596-2.148-14.148-10.713-20.506zM69.677 89c1.027-3.902 4.467-5.9 6.965-6.861-4.788-1.866-15.233-5.151-20.147-.606a.98.98 0 0 1-1.33-1.438c7.39-6.831 23.918.9 24.798 1.32l.002.002a.142.142 0 0 0 .018.008c.018.009.033.022.051.03.036.022.072.042.105.066.024.017.044.037.065.056.027.023.053.045.076.07.02.022.037.046.054.069.021.028.043.054.061.083a.945.945 0 0 1 .04.078c.014.03.03.06.043.093.012.033.02.067.027.1.006.025.016.049.021.074l.001.012c.005.037.005.075.007.113.001.027.005.054.004.079 0 .027-.008.055-.01.082-.005.037-.008.074-.017.109-.005.019-.013.038-.019.056a.963.963 0 0 1-.046.127l-.003.009c-.003.008-.009.013-.013.019a.972.972 0 0 1-.124.186l-.04.047a.983.983 0 0 1-.187.154c-.007.005-.015.007-.022.012a1.046 1.046 0 0 1-.199.088c-.022.007-.044.012-.066.017-.023.006-.044.015-.067.019-.098.017-6.844 1.25-8.154 6.225A.98.98 0 1 1 69.677 89zm-1.405-14.584a.978.978 0 1 1-.478-1.899c6.23-1.565 11.19 4.555 11.397 4.816a.979.979 0 0 1-1.53 1.22c-.045-.054-4.384-5.394-9.389-4.137zm22.467 1.22c.17-.551 4.27-13.551 14.862-16.683a.979.979 0 0 1 .555 1.877c-9.575 2.833-13.506 15.257-13.545 15.382a.98.98 0 0 1-1.224.649.981.981 0 0 1-.648-1.224zm-8.595 4.999a3.591 3.591 0 0 1 3.586-3.587 3.592 3.592 0 0 1 3.587 3.587 3.59 3.59 0 0 1-3.587 3.587 3.59 3.59 0 0 1-3.586-3.587zm5.215 0c0-.898-.73-1.63-1.629-1.63a1.63 1.63 0 0 0-1.628 1.63c0 .898.73 1.629 1.628 1.629.898 0 1.63-.731 1.63-1.63zm-3.085 5.363l-.05.075c-.176.239-.342.485-.498.732l-.06.09c-2.355 3.8-3.082 9.203-2.162 16.06a.979.979 0 1 1-1.94.26c-.432-3.214-.516-6.141-.253-8.77-2.708 5.385-5.545 12.649-5.75 19.748a.98.98 0 0 1-.978.95h-.029a.978.978 0 0 1-.95-1.007c.352-12.205 8.061-24.747 10.418-28.305l.001-.001a49.224 49.224 0 0 1 .65-.958l.058-.083.005-.008c.042-.061.084-.12.13-.18l.014-.018a.979.979 0 0 1 1.533 1.218l-.137.195zm-2.073 20.99c.483 2.3 1.015 4.21 1.367 5.472.261.938.37 1.329.4 1.595a.979.979 0 0 1-1.947.219c-.019-.142-.182-.724-.339-1.287-.359-1.287-.902-3.233-1.397-5.597a.978.978 0 1 1 1.916-.402zm19.483 10.78a.98.98 0 0 1 0 1.958h-7.436a.98.98 0 0 1 0-1.958zm-11.678 0a.979.979 0 1 1 0 1.958H55.68a.98.98 0 0 1 0-1.958z"/></g></g></svg>