<svg xmlns="http://www.w3.org/2000/svg" width="26" height="19" viewBox="0 0 26 19"><g><g><path fill="#fff" d="M17.03 8.36a1.025 1.025 0 1 1-.006 1.806l-5.598 3.01a1.03 1.03 0 0 1-1.013-.024 1.017 1.017 0 0 1-.5-.882V6.198c0-.367.188-.698.504-.885a1.018 1.018 0 0 1 1.017-.017zm-1.45.897l-4.183-2.289v4.538z"/></g><g><path fill="#fff" d="M25.611 4.427c.007.085.185 2.105.185 4.133v1.895c0 2.028-.178 4.048-.185 4.133l-.003.026c-.024.199-.268 1.974-1.108 2.887-1.008 1.109-2.144 1.229-2.69 1.287-.052.006-.1.01-.142.017l-.043.004c-3.351.244-8.408.277-8.458.277h-.016c-.257-.004-6.32-.094-8.254-.278l-.06-.01a4.764 4.764 0 0 0-.25-.03c-.652-.076-1.864-.214-2.822-1.263C.887 16.582.674 14.802.653 14.6l-.001-.013a51.949 51.949 0 0 1-.188-4.133V8.56c0-2.028.18-4.048.188-4.133L.655 4.4c.023-.2.267-1.974 1.107-2.886C2.784.39 3.927.258 4.476.195L4.595.18l.044-.004c3.378-.243 8.438-.277 8.487-.277h.01c.05 0 5.109.034 8.457.277l.044.004.126.015c.557.064 1.71.196 2.73 1.28.883.923 1.096 2.737 1.118 2.94zM24.314 8.56c0-1.907-.17-3.868-.181-3.994-.063-.578-.311-1.647-.713-2.066l-.006-.006c-.648-.69-1.353-.77-1.82-.824a7.266 7.266 0 0 1-.13-.015c-3.256-.236-8.157-.271-8.333-.272-.176 0-5.079.036-8.365.272l-.12.014c-.454.052-1.14.132-1.789.847-.393.427-.653 1.48-.73 2.057-.014.182-.178 2.112-.178 3.987v1.895c0 1.904.168 3.859.18 3.994.063.567.311 1.617.713 2.035l.015.015c.584.643 1.343.729 1.898.793.11.013.212.025.31.04 1.874.175 7.848.266 8.1.269.224 0 5.09-.037 8.33-.271l.158-.018c.473-.05 1.122-.12 1.753-.813.409-.445.665-1.567.727-2.056.016-.178.18-2.111.18-3.988z"/></g></g></svg>